<svg xmlns="http://www.w3.org/2000/svg" viewBox="0 0 750 500"><g id="freepik--Coins--inject-5"><g style="opacity:0.30000000000000004"><circle cx="584.01" cy="146.27" r="37.19" transform="translate(-12.44 64.34) rotate(-6.24)" style="fill:none;stroke:#000;stroke-linecap:round;stroke-linejoin:round"></circle><circle cx="584.01" cy="146.27" r="31.7" transform="translate(177.83 590.66) rotate(-61.63)" style="fill:none;stroke:#000;stroke-linecap:round;stroke-linejoin:round"></circle><path d="M597.51,152.63c0-10.66-15.12-10.9-15.12-15.35,0-2.34,1.23-3.05,3.75-3.05,2.17,0,4,.94,6.09,2.82l5-5.75a15.33,15.33,0,0,0-8.84-4.9v-6H581.8v6.17c-5.65,1.22-9,5.25-9,11.18,0,10.25,15.13,10.9,15.13,15.59,0,2.28-1.18,3.28-4.11,3.28-2.46,0-4.92-.94-8.09-3.28l-4.33,6.8a19.83,19.83,0,0,0,10.43,4.42v5.89h6.57v-6.3C594.49,162.7,597.51,158.28,597.51,152.63Z" style="fill:none;stroke:#000;stroke-linecap:round;stroke-linejoin:round"></path></g><g style="opacity:0.30000000000000004"><circle cx="606.17" cy="343.85" r="16.96" style="fill:none;stroke:#000;stroke-linecap:round;stroke-linejoin:round"></circle><circle cx="606.17" cy="343.85" r="14.46" transform="translate(-65.6 529.34) rotate(-45)" style="fill:none;stroke:#000;stroke-linecap:round;stroke-linejoin:round"></circle><path d="M612.32,346.75c0-4.86-6.9-5-6.9-7,0-1.07.56-1.39,1.71-1.39a4.14,4.14,0,0,1,2.79,1.28l2.27-2.62a7.09,7.09,0,0,0-4-2.24v-2.73h-3v2.81A4.9,4.9,0,0,0,601,340c0,4.68,6.9,5,6.9,7.11,0,1.05-.54,1.5-1.87,1.5a6.12,6.12,0,0,1-3.69-1.5l-2,3.11a9,9,0,0,0,4.76,2v2.69h3V352A5.08,5.08,0,0,0,612.32,346.75Z" style="fill:none;stroke:#000;stroke-linecap:round;stroke-linejoin:round"></path></g><g style="opacity:0.30000000000000004"><circle cx="297.28" cy="48.09" r="26.62" transform="translate(-3.86 47.55) rotate(-9.09)" style="fill:none;stroke:#000;stroke-linecap:round;stroke-linejoin:round"></circle><circle cx="297.28" cy="48.09" r="22.69" transform="translate(97.43 273.36) rotate(-57.61)" style="fill:none;stroke:#000;stroke-linecap:round;stroke-linejoin:round"></circle><path d="M306.93,52.64c0-7.63-10.82-7.8-10.82-11,0-1.67.88-2.18,2.69-2.18a6.39,6.39,0,0,1,4.36,2l3.56-4.11a11,11,0,0,0-6.33-3.52V29.57h-4.7V34a7.69,7.69,0,0,0-6.46,8c0,7.34,10.82,7.8,10.82,11.16,0,1.63-.83,2.35-2.93,2.35-1.76,0-3.53-.67-5.79-2.35L288.23,58a14.07,14.07,0,0,0,7.46,3.17V65.4h4.7V60.89A8,8,0,0,0,306.93,52.64Z" style="fill:none;stroke:#000;stroke-linecap:round;stroke-linejoin:round"></path></g><g style="opacity:0.30000000000000004"><circle cx="86.4" cy="348.54" r="16.96" transform="translate(-54.71 18.34) rotate(-9.22)" style="fill:none;stroke:#000;stroke-linecap:round;stroke-linejoin:round"></circle><path d="M100.86,348.54A14.46,14.46,0,1,0,86.4,363,14.46,14.46,0,0,0,100.86,348.54Z" style="fill:none;stroke:#000;stroke-linecap:round;stroke-linejoin:round"></path><path d="M92.55,351.45c0-4.87-6.89-5-6.89-7,0-1.07.56-1.39,1.71-1.39a4.1,4.1,0,0,1,2.78,1.28l2.27-2.62a7,7,0,0,0-4-2.23v-2.74h-3v2.82a4.89,4.89,0,0,0-4.12,5.1c0,4.67,6.9,5,6.9,7.11,0,1-.53,1.49-1.87,1.49a6.12,6.12,0,0,1-3.69-1.49l-2,3.1a9.1,9.1,0,0,0,4.76,2v2.68h3V356.7A5.06,5.06,0,0,0,92.55,351.45Z" style="fill:none;stroke:#000;stroke-linecap:round;stroke-linejoin:round"></path></g><g style="opacity:0.30000000000000004"><circle cx="509.09" cy="424.52" r="16.96" transform="translate(-57.44 80.38) rotate(-8.55)" style="fill:none;stroke:#000;stroke-linecap:round;stroke-linejoin:round"></circle><path d="M523.55,424.52A14.46,14.46,0,1,0,509.09,439,14.45,14.45,0,0,0,523.55,424.52Z" style="fill:none;stroke:#000;stroke-linecap:round;stroke-linejoin:round"></path><path d="M515.24,427.42c0-4.86-6.89-5-6.89-7,0-1.07.56-1.39,1.71-1.39a4.1,4.1,0,0,1,2.78,1.28l2.27-2.62a7,7,0,0,0-4-2.24v-2.73h-3v2.82a4.89,4.89,0,0,0-4.12,5.09c0,4.68,6.9,5,6.9,7.12,0,1-.53,1.49-1.87,1.49a6.12,6.12,0,0,1-3.69-1.49l-2,3.1a9.1,9.1,0,0,0,4.76,2v2.68h3v-2.87A5.07,5.07,0,0,0,515.24,427.42Z" style="fill:none;stroke:#000;stroke-linecap:round;stroke-linejoin:round"></path></g><g style="opacity:0.30000000000000004"><circle cx="173.66" cy="156.08" r="16.96" style="fill:none;stroke:#000;stroke-linecap:round;stroke-linejoin:round"></circle><circle cx="173.66" cy="156.08" r="14.46" transform="translate(-32.21 266.23) rotate(-70.1)" style="fill:none;stroke:#000;stroke-linecap:round;stroke-linejoin:round"></circle><path d="M179.82,159c0-4.87-6.9-5-6.9-7,0-1.07.56-1.39,1.71-1.39a4.07,4.07,0,0,1,2.78,1.29l2.27-2.62a7,7,0,0,0-4-2.24v-2.74h-3v2.82a4.9,4.9,0,0,0-4.12,5.1c0,4.68,6.9,5,6.9,7.11,0,1-.53,1.5-1.87,1.5a6.16,6.16,0,0,1-3.69-1.5l-2,3.1a9.1,9.1,0,0,0,4.76,2v2.69h3v-2.88A5.07,5.07,0,0,0,179.82,159Z" style="fill:none;stroke:#000;stroke-linecap:round;stroke-linejoin:round"></path></g><g style="opacity:0.30000000000000004"><circle cx="159.12" cy="361.57" r="37.19" transform="translate(-38.5 19.52) rotate(-6.26)" style="fill:none;stroke:#000;stroke-linecap:round;stroke-linejoin:round"></circle><circle cx="159.12" cy="361.57" r="31.7" transform="translate(-235.54 344.28) rotate(-63.74)" style="fill:none;stroke:#000;stroke-linecap:round;stroke-linejoin:round"></circle><path d="M172.61,367.94c0-10.67-15.12-10.9-15.12-15.36,0-2.34,1.23-3.05,3.75-3.05,2.17,0,4,.94,6.1,2.82l5-5.75a15.42,15.42,0,0,0-8.85-4.9v-6H156.9v6.18c-5.64,1.22-9,5.25-9,11.17,0,10.26,15.12,10.9,15.12,15.59,0,2.29-1.17,3.28-4.1,3.28-2.46,0-4.93-.94-8.09-3.28l-4.34,6.8a19.86,19.86,0,0,0,10.43,4.42v5.89h6.57v-6.3C169.59,378,172.61,373.58,172.61,367.94Z" style="fill:none;stroke:#000;stroke-linecap:round;stroke-linejoin:round"></path></g></g><g id="freepik--Chronometer--inject-5"><rect x="242.6" y="101.77" width="21.62" height="33.51" transform="translate(-19.19 181.44) rotate(-38.06)" style="fill:#263238;stroke:#263238;stroke-linejoin:round"></rect><rect x="224.7" y="93.45" width="36.76" height="23.78" transform="translate(-13.25 172.27) rotate(-38.06)" style="fill:#769FCD;stroke:#263238;stroke-linejoin:round"></rect><line x1="227.53" y1="103.32" x2="238.28" y2="117.05" style="fill:none;stroke:#263238;stroke-linejoin:round"></line><line x1="237.33" y1="95.65" x2="248.08" y2="109.37" style="fill:none;stroke:#263238;stroke-linejoin:round"></line><line x1="234.66" y1="103.01" x2="245.41" y2="116.73" style="fill:none;stroke:#263238;stroke-linejoin:round"></line><rect x="480.49" y="101.77" width="21.62" height="33.51" transform="translate(805.04 514.76) rotate(-141.94)" style="fill:#263238;stroke:#263238;stroke-linejoin:round"></rect><rect x="483.25" y="93.45" width="36.76" height="23.78" transform="translate(831.64 497.54) rotate(-141.94)" style="fill:#769FCD;stroke:#263238;stroke-linejoin:round"></rect><line x1="517.18" y1="103.32" x2="506.43" y2="117.05" style="fill:none;stroke:#263238;stroke-linejoin:round"></line><line x1="507.38" y1="95.65" x2="496.63" y2="109.37" style="fill:none;stroke:#263238;stroke-linejoin:round"></line><line x1="510.05" y1="103.01" x2="499.3" y2="116.73" style="fill:none;stroke:#263238;stroke-linejoin:round"></line><rect x="353.52" y="52.33" width="35.06" height="35.11" style="fill:#263238;stroke:#263238;stroke-linejoin:round"></rect><rect x="345.68" y="32.19" width="50.74" height="35.11" style="fill:#769FCD;stroke:#263238;stroke-linejoin:round"></rect><line x1="350.24" y1="32.07" x2="350.24" y2="61.33" style="fill:none;stroke:#263238;stroke-linejoin:round"></line><line x1="354.42" y1="62.64" x2="354.42" y2="46.96" style="fill:none;stroke:#263238;stroke-linejoin:round"></line><line x1="358.86" y1="32.86" x2="358.86" y2="55.06" style="fill:none;stroke:#263238;stroke-linejoin:round"></line><line x1="363.3" y1="43.57" x2="363.3" y2="63.95" style="fill:none;stroke:#263238;stroke-linejoin:round"></line><line x1="370.1" y1="33.12" x2="370.1" y2="56.11" style="fill:none;stroke:#263238;stroke-linejoin:round"></line><circle cx="371.05" cy="264.7" r="183.41" transform="translate(-78.5 339.9) rotate(-45)" style="fill:#263238;stroke:#263238;stroke-linejoin:round"></circle><circle cx="371.05" cy="264.7" r="161.91" transform="translate(-78.5 339.9) rotate(-45)" style="fill:#fff;stroke:#263238;stroke-linejoin:round"></circle><circle cx="371.05" cy="264.7" r="149.22" transform="translate(-78.5 339.9) rotate(-45)" style="fill:#fff;stroke:#263238;stroke-linejoin:round"></circle><line x1="371.05" y1="115.48" x2="371.05" y2="135.71" style="fill:none;stroke:#263238;stroke-linejoin:round"></line><line x1="371.05" y1="393.54" x2="371.05" y2="413.77" style="fill:none;stroke:#263238;stroke-linejoin:round"></line><line x1="520.19" y1="264.63" x2="499.96" y2="264.63" style="fill:none;stroke:#263238;stroke-linejoin:round"></line><line x1="242.13" y1="264.63" x2="221.9" y2="264.63" style="fill:none;stroke:#263238;stroke-linejoin:round"></line><line x1="476.51" y1="159.17" x2="462.2" y2="173.47" style="fill:none;stroke:#263238;stroke-linejoin:round"></line><line x1="279.89" y1="355.78" x2="265.59" y2="370.09" style="fill:none;stroke:#263238;stroke-linejoin:round"></line><line x1="265.59" y1="159.17" x2="279.89" y2="173.47" style="fill:none;stroke:#263238;stroke-linejoin:round"></line><line x1="462.2" y1="355.78" x2="476.51" y2="370.09" style="fill:none;stroke:#263238;stroke-linejoin:round"></line><polygon points="407.86 250.42 410.19 259.31 257.69 296.09 256.99 293.42 407.86 250.42" style="fill:#263238;stroke:#263238;stroke-linejoin:round"></polygon><path d="M376.9,264.7a5.85,5.85,0,1,0-5.85,5.85A5.85,5.85,0,0,0,376.9,264.7Z" style="fill:#fff;stroke:#263238;stroke-linejoin:round"></path></g></svg>
